# File produced by AccuTrans 3D

mtllib machine11_lo.mtl

# g models_mapobjects_strogg_misc_equipment_machine11

v 0 47.6736907959 7.5297169685
v 0 47.6736907959 -7.5297131538
v 6.5473923683 35.0015640259 -15.8072357178
v 0 35.0333518982 -15.820482254
v -6.5473923683 35.0015640259 -15.8072357178
v 0 40.6908226013 7.5297169685
v -10.5199842453 47.6736907959 7.5297169685
v -10.5199842453 47.6736907959 -7.5297131538
v 0 40.6908226013 -7.5297131538
v 0 35.0333518982 15.8204860687
v -6.5473923683 35.0015640259 15.8072395325
v 6.5473923683 35.0015640259 15.8072395325
v -6.6734466553 3.1935265064 15.8525114059
v -15.2671127319 3.0981514454 15.1764249802
v -11.3755722046 3.0981514454 15.8476524353
v -15.847653389 3.0981516838 11.3761987686
v -14.0166158676 3.0981514454 15.7085294724
v -15.7689876556 3.0981516838 13.6239490509
v -15.2676429749 -0.0000006634 15.1769552231
v 0 -0.0000006937 15.8706846237
v -6.6121640205 -0.0000006937 15.8708772659
v -11.3967075348 -0.0000006938 15.8714561462
v -15.8714561462 -0.000000499 11.4161787033
v -14.0274486542 -0.0000006872 15.7206945419
v -15.7811536789 -0.0000005964 13.6442041397
v 6.6734466553 3.1935265064 15.8525114059
v 15.2671127319 3.0981514454 15.1764249802
v 11.3755722046 3.0981514454 15.8476524353
v 15.847653389 3.0981516838 11.3761987686
v 14.0166158676 3.0981514454 15.7085294724
v 15.7689876556 3.0981516838 13.6239490509
v 15.2676429749 -0.0000006634 15.1769552231
v 6.6121640205 -0.0000006937 15.8708772659
v 11.3967075348 -0.0000006938 15.8714561462
v 15.8714561462 -0.000000499 11.4161787033
v 14.0274486542 -0.0000006872 15.7206945419
v 15.7811536789 -0.0000005964 13.6442041397
v -15.8524675369 3.1935269833 6.6739764214
v -15.8708791733 -0.00000029 6.6351308823
v 15.8524675369 3.1935269833 6.6739764214
v 15.8708791733 -0.00000029 6.6351308823
v -15.7244386673 35.1287231445 6.5493078232
v 0 35.2240943909 6.655673027
v 15.7244386673 35.1287231445 6.5493078232
v -12.3013973236 40.6908226013 6.4984703064
v -12.3013973236 40.6908226013 7.5297169685
v -10.8988399506 46.1886329651 6.4115095139
v 0 40.6908226013 6.5451183319
v -15.7199811935 46.1788825989 6.401787281
v 12.3013973236 40.6908226013 6.4984703064
v 15.7199811935 46.1788825989 6.401787281
v 10.8988399506 46.1886329651 6.4115095139
v 12.3013973236 40.6908226013 7.5297169685
v 10.5199842453 47.6736907959 7.5297169685
v -15.8524675369 3.1935274601 -6.6739764214
v -15.8708791733 0.00000029 -6.6351308823
v 15.8524675369 3.1935274601 -6.6739764214
v 15.8708791733 0.00000029 -6.6351308823
v -15.7244386673 35.1287231445 -6.5493049622
v 0 35.2240943909 -6.655670166
v 15.7244386673 35.1287231445 -6.5493049622
v -12.3013973236 40.6908226013 -6.4984664917
v -10.8988399506 46.1886329651 -6.4115056992
v -12.3013973236 40.6908226013 -7.5297131538
v 0 40.6908226013 -6.5451145172
v -15.7199811935 46.1788825989 -6.4017834663
v 12.3013973236 40.6908226013 -6.4984664917
v 15.7199811935 46.1788825989 -6.4017834663
v 10.8988399506 46.1886329651 -6.4115056992
v 12.3013973236 40.6908226013 -7.5297131538
v 10.5199842453 47.6736907959 -7.5297131538
v -15.2671127319 3.0981528759 -15.1764249802
v -15.847653389 3.0981526375 -11.3761987686
v -11.3755722046 3.0981528759 -15.8476524353
v -15.7689876556 3.0981526375 -13.6239490509
v -14.0166158676 3.0981528759 -15.7085294724
v -6.6734466553 3.1935279369 -15.8525114059
v -15.2676429749 0.0000006634 -15.1769552231
v 0 0.0000006937 -15.8706846237
v -6.6121640205 0.0000006937 -15.8708772659
v -11.3967075348 0.0000006938 -15.8714561462
v -15.7811536789 0.0000005964 -13.6442041397
v -14.0274486542 0.0000006872 -15.7206945419
v -15.8714561462 0.000000499 -11.4161787033
v 15.2671127319 3.0981528759 -15.1764249802
v 6.6734466553 3.1935279369 -15.8525114059
v 15.847653389 3.0981526375 -11.3761987686
v 11.3755722046 3.0981528759 -15.8476524353
v 15.7689876556 3.0981526375 -13.6239490509
v 14.0166158676 3.0981528759 -15.7085294724
v 15.2676429749 0.0000006634 -15.1769552231
v 6.6121640205 0.0000006937 -15.8708772659
v 11.3967075348 0.0000006938 -15.8714561462
v 15.7811536789 0.0000005964 -13.6442041397
v 14.0274486542 0.0000006872 -15.7206945419
v 15.8714561462 0.000000499 -11.4161787033
# 96 vertices

s off

usemtl models_mapobjects_strogg_misc_equipment_machine11

f 65 70 67
f 9 70 65
f 65 67 60
f 88 90 93
f 93 90 95
f 91 85 94
f 85 89 94
f 4 3 79
f 86 92 79
f 3 86 79
f 94 89 96
f 89 87 96
f 86 57 87
f 88 86 87
f 89 88 87
f 90 88 89
f 85 90 89
f 90 85 95
f 95 85 91
f 96 57 58
f 87 57 96
f 86 61 57
f 3 61 86
f 60 67 61
f 67 68 61
f 69 68 67
f 86 88 92
f 88 93 92
f 60 61 3
f 4 60 3
f 71 70 9
f 2 71 9
f 71 69 70
f 70 69 67
f 26 20 33
f 12 10 26
f 26 10 20
f 48 53 6
f 48 50 53
f 50 48 43
f 30 28 34
f 36 30 34
f 37 27 32
f 31 27 37
f 29 31 35
f 35 31 37
f 40 26 28
f 29 40 28
f 30 29 28
f 31 29 30
f 27 31 30
f 27 30 36
f 32 27 36
f 41 40 35
f 40 29 35
f 50 43 44
f 51 50 44
f 51 52 50
f 69 52 51
f 68 69 51
f 58 57 41
f 57 40 41
f 57 44 40
f 61 44 57
f 61 51 44
f 68 51 61
f 28 26 33
f 28 33 34
f 44 43 12
f 43 10 12
f 53 54 6
f 54 1 6
f 54 2 1
f 71 2 54
f 52 54 53
f 50 52 53
f 71 54 52
f 69 71 52
f 44 12 40
f 40 12 26
f 79 92 20
f 20 92 33
f 92 93 33
f 33 93 34
f 95 91 94
f 93 95 34
f 95 94 96
f 95 96 58
f 58 41 34
f 95 58 34
f 41 35 34
f 35 36 34
f 35 37 36
f 37 32 36
f 64 65 62
f 64 9 65
f 62 65 60
f 76 74 81
f 76 81 83
f 72 78 82
f 75 72 82
f 5 4 79
f 80 77 79
f 77 5 79
f 75 82 84
f 73 75 84
f 55 77 73
f 77 74 73
f 74 75 73
f 74 76 75
f 76 72 75
f 72 76 83
f 72 83 78
f 55 84 56
f 55 73 84
f 59 77 55
f 59 5 77
f 62 60 59
f 66 62 59
f 66 63 62
f 74 77 80
f 81 74 80
f 59 60 5
f 60 4 5
f 64 8 9
f 8 2 9
f 63 8 64
f 63 64 62
f 20 13 21
f 10 11 13
f 10 13 20
f 46 48 6
f 45 48 46
f 48 45 43
f 15 17 22
f 17 24 22
f 14 25 19
f 14 18 25
f 18 16 23
f 18 23 25
f 13 38 15
f 38 16 15
f 16 17 15
f 16 18 17
f 18 14 17
f 17 14 24
f 14 19 24
f 38 39 23
f 16 38 23
f 43 45 42
f 45 49 42
f 47 49 45
f 47 63 49
f 63 66 49
f 55 56 39
f 38 55 39
f 42 55 38
f 42 59 55
f 49 59 42
f 49 66 59
f 13 15 21
f 21 15 22
f 43 42 11
f 10 43 11
f 7 46 6
f 1 7 6
f 2 7 1
f 2 8 7
f 7 47 46
f 47 45 46
f 7 8 47
f 8 63 47
f 11 42 38
f 11 38 13
f 80 79 20
f 80 20 21
f 81 80 21
f 81 21 22
f 78 83 82
f 83 81 22
f 82 83 84
f 84 83 56
f 39 56 22
f 56 83 22
f 23 39 22
f 24 23 22
f 25 23 24
f 19 25 24
# 188 faces

# g textures_common_collision

v -16.0 0 16.0
v 16.0 0 16.0
v 16.0 0 -16.0
v -16.0 0 -16.0
v -16.0 35.5 16.0
v 16.0 35.5 16.0
v 16.0 35.5 -16.0
v -16.0 35.5 -16.0
v -16.0 35.5 8.0
v -16.0 35.5 -8.0
v 16.0 35.5 -8.0
v 16.0 35.5 8.0
v -16.0 48.0 8.0
v -16.0 48.0 -8.0
v 16.0 48.0 -8.0
v 16.0 48.0 8.0
# 16 vertices

s off

usemtl textures_common_collision

f 97 100 98
f 100 99 98
f 101 97 98
f 102 101 98
f 100 104 99
f 104 103 99
f 110 109 112
f 111 110 112
f 112 105 108
f 112 109 105
f 106 111 107
f 110 111 106
f 99 103 98
f 111 112 108
f 107 111 108
f 108 102 98
f 107 108 98
f 103 107 98
f 103 104 107
f 104 106 107
f 105 101 102
f 108 105 102
f 101 100 97
f 109 110 106
f 109 106 105
f 106 104 100
f 101 105 100
f 105 106 100
# 28 faces
